<mxfile host="app.diagrams.net" modified="2023-01-10T17:50:25.729Z" agent="5.0 (Macintosh; Intel Mac OS X 10_15_7) AppleWebKit/537.36 (KHTML, like Gecko) Chrome/108.0.0.0 Safari/537.36" version="20.8.3" etag="9eEOkCqlIOLMSa0RMbdJ" type="github">
  <diagram id="gyTtBOqPCFHDrv6453Xi" name="Page-1">
    <mxGraphModel dx="836" dy="455" grid="1" gridSize="10" guides="1" tooltips="1" connect="1" arrows="1" fold="1" page="1" pageScale="1" pageWidth="850" pageHeight="1100" math="0" shadow="0">
      <root>
        <mxCell id="0" />
        <mxCell id="1" parent="0" />
        <mxCell id="X8109m-stx2JQNyGRJrr-1" value="Analisis morfologico de firmas" style="rounded=1;whiteSpace=wrap;html=1;sketch=1;hachureGap=4;jiggle=2;curveFitting=1;fontFamily=Architects Daughter;fontSource=https%3A%2F%2Ffonts.googleapis.com%2Fcss%3Ffamily%3DArchitects%2BDaughter;fontSize=20;" vertex="1" parent="1">
          <mxGeometry x="70" y="60" width="290" height="60" as="geometry" />
        </mxCell>
        <mxCell id="X8109m-stx2JQNyGRJrr-2" value="&lt;meta charset=&quot;utf-8&quot;&gt;&lt;span style=&quot;margin: 0px; padding: 0.00978849px 0px 0px; user-select: text; -webkit-user-drag: none; -webkit-tap-highlight-color: transparent; touch-action: pan-x pan-y; font-variant: normal; color: rgb(0, 0, 0); font-style: normal; font-weight: normal; letter-spacing: 0px; orphans: 2; text-align: left; text-indent: 0px; text-transform: none; widows: 2; word-spacing: 0px; -webkit-text-stroke-width: 0px; background-color: rgb(237, 235, 233); text-decoration: none; font-size: 8.7037px; font-family: Arial, Arial_EmbeddedFont, Arial_MSFontService, sans-serif; font-kerning: none; line-height: 10px; vertical-align: -0.00978849px;&quot; lang=&quot;ES-MX&quot; class=&quot;TextRun SCXP67084541 BCX0&quot; data-contrast=&quot;none&quot; data-usefontface=&quot;false&quot;&gt;&lt;span style=&quot;margin: 0px; padding: 0px; user-select: text; -webkit-user-drag: none; -webkit-tap-highlight-color: transparent; touch-action: pan-x pan-y; vertical-align: 0.00978849px; line-height: 0px; position: relative;&quot; class=&quot;NormalTextRun SCXP67084541 BCX0&quot;&gt;Procesador inteligente de documentos&lt;/span&gt;&lt;/span&gt;&lt;span style=&quot;margin: 0px; padding: 0px; user-select: text; -webkit-user-drag: none; -webkit-tap-highlight-color: transparent; touch-action: pan-x pan-y; color: rgb(0, 0, 0); font-style: normal; font-variant-ligatures: normal; font-variant-caps: normal; font-weight: 400; letter-spacing: normal; orphans: 2; text-align: left; text-indent: 0px; text-transform: none; widows: 2; word-spacing: 0px; -webkit-text-stroke-width: 0px; background-color: rgb(237, 235, 233); text-decoration-thickness: initial; text-decoration-style: initial; text-decoration-color: initial; font-size: 8.7037px; line-height: 0px; font-family: Arial, Arial_EmbeddedFont, Arial_MSFontService, sans-serif;&quot; class=&quot;EOP SCXP67084541 BCX0&quot;&gt;â€‹&lt;/span&gt;" style="text;whiteSpace=wrap;html=1;fontSize=20;fontFamily=Architects Daughter;align=center;verticalAlign=middle;fillColor=default;strokeColor=default;rounded=1;sketch=1;hachureGap=4;jiggle=2;curveFitting=1;fontSource=https%3A%2F%2Ffonts.googleapis.com%2Fcss%3Ffamily%3DArchitects%2BDaughter;" vertex="1" parent="1">
          <mxGeometry x="70" y="140" width="180" height="50" as="geometry" />
        </mxCell>
      </root>
    </mxGraphModel>
  </diagram>
</mxfile>
